<?xml version="1.0" encoding="utf-8"?>
<!-- Generator: Adobe Illustrator 22.0.1, SVG Export Plug-In . SVG Version: 6.00 Build 0)  -->
<svg version="1.1" id="Layer_1" xmlns="http://www.w3.org/2000/svg" xmlns:xlink="http://www.w3.org/1999/xlink" x="0px" y="0px" width="25px" height="25px"
	 viewBox="0 0 25 25" style="enable-background:new 0 0 25 25;" xml:space="preserve">
<style type="text/css">
	.st0{fill-opacity:0.9;}
	.st1{fill:none;}
</style>
<path class="st0" d="M12.5,2.1C6.8,2.1,2.1,6.8,2.1,12.5s4.7,10.4,10.4,10.4h5.2v-2.1h-5.2c-4.5,0-8.3-3.9-8.3-8.3S8,4.2,12.5,4.2
	s8.3,3.9,8.3,8.3V14c0,0.8-0.7,1.7-1.6,1.7c-0.8,0-1.6-0.8-1.6-1.7v-1.5c0-2.9-2.3-5.2-5.2-5.2s-5.2,2.3-5.2,5.2s2.3,5.2,5.2,5.2
	c1.5,0,2.7-0.6,3.6-1.6c0.7,0.9,1.9,1.6,3.1,1.6c2.1,0,3.6-1.7,3.6-3.8v-1.5C22.9,6.8,18.2,2.1,12.5,2.1z M12.5,15.6
	c-1.8,0-3.1-1.4-3.1-3.1s1.4-3.1,3.1-3.1s3.1,1.4,3.1,3.1S14.3,15.6,12.5,15.6z"/>
<path class="st1" d="M0,0h25v25H0V0z"/>
</svg>
