<?xml version="1.0" encoding="utf-8"?>
<!-- Generator: Adobe Illustrator 22.0.1, SVG Export Plug-In . SVG Version: 6.00 Build 0)  -->
<svg version="1.1" id="Layer_1" xmlns="http://www.w3.org/2000/svg" xmlns:xlink="http://www.w3.org/1999/xlink" x="0px" y="0px" width="25px" height="25px"
	 viewBox="0 0 25 25" style="enable-background:new 0 0 25 25;" xml:space="preserve">
<style type="text/css">
	.st0{fill:none;}
</style>
<path class="st0" d="M0,0h25v25H0V0z"/>
<path d="M20.8,16c-1.2,0-2.5-0.2-3.6-0.6c-0.4-0.1-0.7,0-1,0.2l-1.7,2.1c-2.9-1.5-5.7-4.1-7.2-7.1l2.1-1.8c0.3-0.3,0.4-0.7,0.2-1
	C9.2,6.7,9,5.4,9,4.2c0-0.5-0.4-1-1-1H4.4c-0.5,0-1.2,0.2-1.2,1c0,9.7,8,17.7,17.7,17.7c0.7,0,1-0.6,1-1.3V17
	C21.9,16.5,21.4,16,20.8,16z"/>
</svg>
