<?xml version="1.0" encoding="utf-8"?>
<!-- Generator: Adobe Illustrator 22.0.1, SVG Export Plug-In . SVG Version: 6.00 Build 0)  -->
<svg version="1.1" id="Layer_1" xmlns="http://www.w3.org/2000/svg" xmlns:xlink="http://www.w3.org/1999/xlink" x="0px" y="0px"
	 viewBox="0 0 28.5 27.5" style="enable-background:new 0 0 28.5 27.5;" xml:space="preserve">
<style type="text/css">
	.st0{fill:#1F1F24;}
	.st1{fill:#00A0DC;}
</style>
<rect x="1.1" y="0.8" class="st0" width="26.5" height="25.8"/>
<g id="Group_258" transform="translate(-311 -25)">
	<g id="linkedin" transform="translate(322.238 35.934)">
		<path id="Path_343" class="st1" d="M15-10.1c0.7,0,1.3,0.5,1.3,1.2v23.3c0,0.7-0.6,1.2-1.3,1.2H-8.9c-0.7,0-1.3-0.5-1.3-1.2V-8.9
			c0-0.7,0.6-1.2,1.3-1.2L15-10.1 M15-10.8H-8.9c-1.1,0-2,0.8-2.1,2v23.3c0,1.1,1,2,2.1,2H15c1.1,0,2-0.9,2.1-2V-8.9
			C17.1-10,16.1-10.9,15-10.8L15-10.8z"/>
		<path id="Path_344" class="st1" d="M8.8,12.4V6.1c0-1.5,0-3.4-2.2-3.4S4.1,4.3,4.1,6v6.4H0v-13h4v1.8H4C4.9-0.2,6.4-1,8-0.9
			c4.2,0,5,2.7,5,6.2v7.1L8.8,12.4z M-4.7-7.1c-1,0-1.8,0.6-2.2,1.5c-0.4,0.9-0.2,1.9,0.5,2.6c0.7,0.7,1.7,0.9,2.6,0.5
			c0.9-0.4,1.5-1.2,1.5-2.2c0-0.6-0.3-1.2-0.7-1.7C-3.5-6.8-4.1-7.1-4.7-7.1z M-6.8,12.4h4.2v-13h-4.2V12.4z"/>
	</g>
</g>
</svg>
