<svg xmlns="http://www.w3.org/2000/svg" xmlns:xlink="http://www.w3.org/1999/xlink" viewBox="0 0 200.023 32.124" width="200.02px" height="32.12px">
  <defs>
    <style>
      .cls-1 {
        fill: url(#linear-gradient);
      }

      .cls-2 {
        fill: none;
      }

      .cls-3 {
        fill: #787777;
      }

      .cls-4 {
        fill: #ff3f97;
      }

      .cls-5 {
        fill: url(#linear-gradient-2);
      }

      .cls-6 {
        fill: url(#linear-gradient-3);
      }

      .cls-7 {
        fill: url(#linear-gradient-4);
      }

      .cls-8 {
        fill: url(#linear-gradient-5);
      }

      .cls-9 {
        fill: url(#linear-gradient-6);
      }

      .cls-10 {
        fill: url(#linear-gradient-7);
      }

      .cls-11 {
        fill: url(#linear-gradient-8);
      }

      .cls-12 {
        fill: #ffd900;
      }

      .cls-13 {
        fill: #fff;
      }
    </style>
    <linearGradient id="linear-gradient" x1="0.001" y1="0.495" x2="1" y2="0.495" gradientUnits="objectBoundingBox">
      <stop offset="0.329" stop-color="#00afec"/>
      <stop offset="0.424" stop-color="#0498da"/>
      <stop offset="0.697" stop-color="#1059a8"/>
      <stop offset="0.896" stop-color="#17328a"/>
      <stop offset="1" stop-color="#1a237e"/>
    </linearGradient>
    <linearGradient id="linear-gradient-2" y1="0.5" x2="1.001" y2="0.5" gradientUnits="objectBoundingBox">
      <stop offset="0" stop-color="#1a237e"/>
      <stop offset="0.026" stop-color="#163a90"/>
      <stop offset="0.072" stop-color="#0f5eac"/>
      <stop offset="0.121" stop-color="#0a7bc3"/>
      <stop offset="0.173" stop-color="#0592d5"/>
      <stop offset="0.229" stop-color="#02a2e2"/>
      <stop offset="0.292" stop-color="#01acea"/>
      <stop offset="0.375" stop-color="#00afec"/>
    </linearGradient>
    <linearGradient id="linear-gradient-3" x1="-0.009" y1="0.499" x2="0.99" y2="0.499" gradientUnits="objectBoundingBox">
      <stop offset="0.358" stop-color="#9457ff"/>
      <stop offset="0.387" stop-color="#9a56f5"/>
      <stop offset="0.501" stop-color="#ac52d4"/>
      <stop offset="0.618" stop-color="#bb4eba"/>
      <stop offset="0.737" stop-color="#c54ca8"/>
      <stop offset="0.862" stop-color="#cb4a9d"/>
      <stop offset="1" stop-color="#cd4a99"/>
    </linearGradient>
    <linearGradient id="linear-gradient-4" x1="0.005" y1="0.502" x2="1.002" y2="0.502" gradientUnits="objectBoundingBox">
      <stop offset="0.089" stop-color="#a60d7c"/>
      <stop offset="0.314" stop-color="#ff3f97"/>
      <stop offset="0.962" stop-color="#ff3f97"/>
    </linearGradient>
    <linearGradient id="linear-gradient-5" x1="-0.004" y1="0.5" x2="1.001" y2="0.5" gradientUnits="objectBoundingBox">
      <stop offset="0" stop-color="#005fef"/>
      <stop offset="0.112" stop-color="#0085ed"/>
      <stop offset="0.375" stop-color="#00d9e9"/>
      <stop offset="0.49" stop-color="#00d5e9"/>
      <stop offset="0.607" stop-color="#00c9ea"/>
      <stop offset="0.725" stop-color="#00b4eb"/>
      <stop offset="0.844" stop-color="#0098ec"/>
      <stop offset="0.963" stop-color="#0073ee"/>
      <stop offset="1" stop-color="#0066ef"/>
    </linearGradient>
    <linearGradient id="linear-gradient-6" x1="0.001" y1="0.512" x2="0.997" y2="0.512" gradientUnits="objectBoundingBox">
      <stop offset="0" stop-color="#cd4a99"/>
      <stop offset="0.08" stop-color="#ca4b9f"/>
      <stop offset="0.184" stop-color="#c14daf"/>
      <stop offset="0.301" stop-color="#b250ca"/>
      <stop offset="0.427" stop-color="#9d55ee"/>
      <stop offset="0.476" stop-color="#9457ff"/>
    </linearGradient>
    <linearGradient id="linear-gradient-7" x1="-0.004" y1="0.503" x2="0.997" y2="0.503" gradientUnits="objectBoundingBox">
      <stop offset="0.011" stop-color="#003a73"/>
      <stop offset="0.213" stop-color="#005fef"/>
      <stop offset="0.358" stop-color="#0085ed"/>
      <stop offset="0.698" stop-color="#00d9e9"/>
    </linearGradient>
    <linearGradient id="linear-gradient-8" x1="0.006" y1="0.501" x2="1.004" y2="0.501" xlink:href="#linear-gradient-4"/>
  </defs>
  <g id="Group_257" data-name="Group 257" transform="translate(-313.6 -215.7)">
    <g id="Group_7" data-name="Group 7" transform="translate(313.6 215.7)">
      <g id="Group_5" data-name="Group 5" transform="translate(15.49)">
        <g id="Group_3" data-name="Group 3" transform="translate(0 3.639)">
          <path id="Path_1" data-name="Path 1" class="cls-1" d="M351.539,220.628v4.678c0-.208-.208-.312-.52-.52-.208-.1-.312-.208-.52-.208h-.208c-.1,0-.312-.1-.416,0h0a2.644,2.644,0,0,0-.728.208c-.1,0-.1.1-.208.1a9.619,9.619,0,0,0-1.04.52v-4.678a5.963,5.963,0,0,1,.728-.416.382.382,0,0,1,.312-.1c.1,0,.1-.1.208-.1a.1.1,0,0,0,.1-.1c.1,0,.208-.1.312-.1h.936c.208.1.312.1.52.208C351.331,220.212,351.539,220.42,351.539,220.628Z" transform="translate(-327.731 -219.172)"/>
          <path id="Path_2" data-name="Path 2" class="cls-2" d="M338.6,225.678V221c0,.728.832,1.352,1.663,1.767v4.678C339.536,227.03,338.6,226.406,338.6,225.678Z" transform="translate(-328.1 -219.129)"/>
          <g id="Group_1" data-name="Group 1" transform="translate(22.768 3.535)">
            <path id="Path_3" data-name="Path 3" class="cls-3" d="M350.5,222.6v4.782l-.1.1V222.7Z" transform="translate(-350.4 -222.6)"/>
          </g>
          <path id="Path_4" data-name="Path 4" class="cls-4" d="M340.363,222.767c-.832-.416-1.663-1.144-1.663-1.767v4.678c0,.728.832,1.352,1.663,1.767l1.144.728V223.5Z" transform="translate(-328.096 -219.129)"/>
          <g id="Group_2" data-name="Group 2" transform="translate(0.832 1.559)">
            <path id="Path_5" data-name="Path 5" class="cls-5" d="M348.637,220.7v4.678l-17.362,10.084-1.975-3.535Z" transform="translate(-329.3 -220.7)"/>
          </g>
          <path id="Path_6" data-name="Path 6" class="cls-6" d="M371.388,222.111l-.312.312-.416.416a7.219,7.219,0,0,1-1.352.52h0a2.534,2.534,0,0,1-1.248,0h0c-.312-.1-.728-.208-1.04-.312-.1,0-.208-.1-.312-.1a4.212,4.212,0,0,1-.936-.52l-3.223-1.871a9.127,9.127,0,0,1-1.04-.624.382.382,0,0,0-.312-.1c-.208-.1-.52-.208-.728-.312-.1,0-.208-.1-.416-.1a1.319,1.319,0,0,0-.624-.1.786.786,0,0,1-.416-.1h-1.248c-.208,0-.312.1-.52.1h-.1c-.1,0-.1,0-.208.1-.1,0-.208.1-.312.1s-.208.1-.312.1c-.1.1-.312.1-.416.208-.1,0-.1,0-.208.1a2.605,2.605,0,0,0-.728.416l-.208.1-.624.416-.52.312-1.559.832-.832.52-.52.312v4.678l.52-.312.832-.52,1.559-.832.52-.312.624-.416.208-.1c.312-.208.624-.312.936-.52.1-.1.312-.1.416-.208a1.477,1.477,0,0,1,.624-.208c.1,0,.1,0,.208-.1.312-.1.52-.1.832-.208h1.247a.786.786,0,0,1,.416.1c.208,0,.416.1.624.1.1,0,.208.1.416.1a5.07,5.07,0,0,0,.728.312c.1,0,.208.1.312.1.312.208.728.416,1.04.624L365.982,227c.312.208.624.312.936.52.1,0,.208.1.312.1.312.1.728.208,1.04.312h0c.312,0,.624.1.832.1h.416a.382.382,0,0,0,.312-.1c.1,0,.208-.1.312-.1a.788.788,0,0,0,.416-.208.363.363,0,0,0,.208-.1c.1-.1.208-.1.312-.208l.208-.208.312-.312.1-.1h0c0-.1.1-.208.1-.312V221.7Z" transform="translate(-327.62 -219.2)"/>
          <path id="Path_7" data-name="Path 7" class="cls-2" d="M364.571,229.811v4.366a3,3,0,0,0-1.871-2.6V226.9a3,3,0,0,1,1.871,2.6Z" transform="translate(-327.145 -218.895)"/>
          <path id="Path_8" data-name="Path 8" class="cls-7" d="M334.426,232.365c-.312.208-.624.312-.936.52-.1,0-.208.1-.312.1a3.686,3.686,0,0,1-1.144.312h0a2.826,2.826,0,0,1-.936,0h-.416a5.866,5.866,0,0,1-1.248-.416c-.624-.416-.936-.728-.936-1.144v4.678c0,.416.312.728.936,1.144a2.955,2.955,0,0,0,1.248.416h.416c.208,0,.312.1.52,0h.416a.785.785,0,0,0,.416-.1c.208,0,.312-.1.52-.208.1,0,.1-.1.208-.1s.208-.1.312-.1.208-.1.312-.1l.624-.312,12.06-6.965V225.4Z" transform="translate(-328.5 -218.954)"/>
          <path id="Path_9" data-name="Path 9" class="cls-8" d="M365.166,229.646a3,3,0,0,0-1.871-2.6l-3.119-1.767a11.645,11.645,0,0,0-4.262-1.04l-5.614-.728-2.6-.312v4.678l2.6.312,5.614.728a11.645,11.645,0,0,1,4.262,1.04l3.119,1.767a3,3,0,0,1,1.871,2.6v-4.678Z" transform="translate(-327.739 -219.041)"/>
          <path id="Path_10" data-name="Path 10" class="cls-2" d="M357.167,227.22V231.9a5.988,5.988,0,0,0-1.767-.52V226.7A3.564,3.564,0,0,1,357.167,227.22Z" transform="translate(-327.434 -218.903)"/>
          <path id="Path_11" data-name="Path 11" class="cls-9" d="M359,228l-1.352-.832a5.989,5.989,0,0,0-1.767-.52L345.8,225.3v4.678l10.084,1.352a7.137,7.137,0,0,1,1.767.52l1.352.832q1.559.936,1.559,1.559v-4.678Q360.563,228.939,359,228Z" transform="translate(-327.815 -218.958)"/>
          <path id="Path_12" data-name="Path 12" class="cls-10" d="M361.842,230.124h0a2.756,2.756,0,0,1-.52.624.363.363,0,0,1-.208.1c-.208.208-.416.312-.624.52a6.311,6.311,0,0,0-1.04.728L345,241.04l2.079,3.431,12.372-7.693a8.986,8.986,0,0,0,1.04-.728h0c.208-.208.416-.312.624-.52a.363.363,0,0,1,.208-.1,2.756,2.756,0,0,0,.52-.624h0l.1-.1a.937.937,0,0,0,.1-.52V229.5C361.946,229.708,361.946,229.916,361.842,230.124Z" transform="translate(-327.846 -218.792)"/>
          <path id="Path_13" data-name="Path 13" class="cls-11" d="M366.448,230.844h0a2.454,2.454,0,0,1-.832.936c-.1.1-.208.1-.312.208a5.771,5.771,0,0,1-.832.624c-.52.312-1.04.624-1.663,1.04l-12.579,7.8a2.09,2.09,0,0,1-.832.416c-.1,0-.1.1-.208.1-.208.1-.312.1-.52.208-.1,0-.1.1-.208.1s-.1,0-.208.1c-.1,0-.312.1-.416.1h-.1c-.208,0-.416.1-.624.1a2.878,2.878,0,0,1-.936-.1c-.1,0-.1,0-.208-.1a3.691,3.691,0,0,1-.936-.416,1.262,1.262,0,0,1-.832-1.144V245.5c0,.312.208.728.832,1.144a3.692,3.692,0,0,0,.936.416c.1,0,.1,0,.208.1a2.879,2.879,0,0,0,.936.1h.728c.1,0,.208-.1.312-.1s.1,0,.208-.1h.1c.1,0,.1,0,.208-.1.208-.1.312-.1.52-.208h.1a.1.1,0,0,0,.1-.1c.312-.1.52-.312.832-.416l12.579-7.8c.624-.416,1.144-.728,1.663-1.04.1-.1.208-.1.312-.208a1.824,1.824,0,0,0,.52-.416c.1-.1.208-.1.312-.208a5.2,5.2,0,0,0,.728-.832v-.208c0-.1.1-.1.1-.208a3.036,3.036,0,0,0,.208-.936V229.7A1.524,1.524,0,0,1,366.448,230.844Z" transform="translate(-327.878 -218.784)"/>
        </g>
        <g id="Group_4" data-name="Group 4" transform="translate(0.005)">
          <path id="Path_14" data-name="Path 14" class="cls-12" d="M350.956,242c-1.455.936-3.327,1.663-5.2.624-1.663-.936-.624-1.975.728-2.807l12.371-7.693c2.5-1.559,3.223-2.287.728-3.639l-1.351-.832a5.988,5.988,0,0,0-1.767-.52l-10.084-1.352-12.06,6.965c-1.455.832-3.119,1.456-4.886.416s-.728-2.079.728-2.911l11.644-6.758-1.144-.728c-1.248-.728-2.6-1.767-.832-2.911,1.767-1.04,3.535-.312,4.886.416l1.144.728,1.663-.936,3.639-2.079.208-.1.208-.1a13.3,13.3,0,0,1,7.485-2.079,16.2,16.2,0,0,1,8.525,2.5l2.807,1.663c1.455.832,2.911,1.871,1.04,2.911-1.767,1.04-3.535.416-4.99-.416l-3.223-1.871c-2.807-1.663-4.574-1.975-7.589-.208l-.208.1-.624.416-.52.312-1.559.832-.832.52-.52.312-.1.1.832.1,4.782.624a14.664,14.664,0,0,1,4.99,1.247l3.119,1.767c1.559.936,2.183,1.767,2.391,3.119.312,1.975-1.559,3.015-3.743,4.366Zm-3.223.312a5.273,5.273,0,0,0,2.183-.832l12.579-7.9.416-.312c1.871-1.144,3.119-1.975,2.911-3.431a3,3,0,0,0-1.871-2.6l-3.119-1.767a11.646,11.646,0,0,0-4.262-1.04l-5.614-.728-2.6-.312,1.871-1.144.52-.312c1.975-1.144,1.455-1.455.936-1.767-.624-.416-1.144-.52-3.119.624L331.2,230.878c-1.871,1.04-1.248,1.352-.728,1.663s1.04.624,2.911-.416l12.06-6.965.52-.312.728.1,10.084,1.352a7.205,7.205,0,0,1,2.391.728l1.351.832c3.431,1.975,1.871,3.223-.624,4.886l-12.371,7.693c-1.767,1.04-1.144,1.455-.728,1.663a2.4,2.4,0,0,0,.936.208" transform="translate(-328.505 -215.7)"/>
        </g>
      </g>
      <g id="Group_6" data-name="Group 6" transform="translate(0 8.317)">
        <path id="Path_15" data-name="Path 15" class="cls-13" d="M324.724,236.779c.416.312.728.52.728,1.144a1.154,1.154,0,0,1-1.144,1.144,1.548,1.548,0,0,1-.936-.416l-8.941-5.926c-.52-.312-.832-.52-.832-1.144s.312-.832.832-1.144l8.941-5.926a1.451,1.451,0,0,1,.936-.312,1.154,1.154,0,0,1,1.144,1.144,1.41,1.41,0,0,1-.728,1.144l-7.693,5.094Z" transform="translate(-313.6 -223.68)"/>
        <path id="Path_16" data-name="Path 16" class="cls-13" d="M484.779,240.022c-.312.416-.52.728-1.04.728a1.042,1.042,0,0,1-1.04-1.04,2.308,2.308,0,0,1,.52-1.144l8.109-14.035c.312-.416.52-.832,1.04-.832a1.042,1.042,0,0,1,1.04,1.04,1.959,1.959,0,0,1-.208.832Z" transform="translate(-306.9 -223.7)"/>
        <path id="Path_17" data-name="Path 17" class="cls-13" d="M503.125,231.785l-7.8-5.2a1.41,1.41,0,0,1-.728-1.144,1.154,1.154,0,0,1,1.144-1.144,1.677,1.677,0,0,1,.936.312l8.941,5.926c.52.312.832.52.832,1.144s-.312.832-.832,1.144l-8.941,5.926a1.548,1.548,0,0,1-.936.416,1.248,1.248,0,0,1-1.144-1.248,1.41,1.41,0,0,1,.728-1.144Z" transform="translate(-306.428 -223.676)"/>
      </g>
    </g>
    <g id="Group_8" data-name="Group 8" transform="translate(376.497 223.809)">
      <path id="Path_18" data-name="Path 18" class="cls-13" d="M375.763,230.927v4.886c0,.624-.1,1.144-.832,1.144s-.832-.624-.832-1.144v-6.965c0-.624.1-1.248.832-1.248s.832.624.832,1.248v.208h0l1.352-.936a2.484,2.484,0,0,1,1.455-.52h1.248a2.292,2.292,0,0,1,1.559.624,2.583,2.583,0,0,1,.728,2.287l.208,5.3c0,.624-.1,1.247-.832,1.247s-.832-.624-.832-1.144l-.208-5.2c0-1.04-.1-1.455-1.144-1.455h-.52c-.208,0-.312.1-.52.208Z" transform="translate(-374.1 -223.338)"/>
      <path id="Path_19" data-name="Path 19" class="cls-13" d="M383.7,230.619a2.271,2.271,0,0,1,1.04-2.183,2.925,2.925,0,0,1,2.391-.936h1.352a3.293,3.293,0,0,1,2.391.936,2.271,2.271,0,0,1,1.04,2.183v3.119a2.518,2.518,0,0,1-1.144,2.287,2.756,2.756,0,0,1-2.287.832h-1.352a2.756,2.756,0,0,1-2.287-.832,2.518,2.518,0,0,1-1.144-2.287v-3.119Zm1.663,3.119c0,.312.1.624.624,1.04a1.563,1.563,0,0,0,1.144.416h1.352a1.42,1.42,0,0,0,1.144-.416c.52-.416.624-.624.624-1.04v-3.119c0-.312-.1-.624-.624-1.04a1.563,1.563,0,0,0-1.144-.416h-1.352a1.42,1.42,0,0,0-1.144.416c-.52.416-.624.624-.624,1.04Z" transform="translate(-373.72 -223.341)"/>
      <path id="Path_20" data-name="Path 20" class="cls-13" d="M396,229.163c-.52,0-1.144-.1-1.144-.832s.624-.832,1.144-.832h2.287a2.941,2.941,0,0,1,2.183.728,2.371,2.371,0,0,1,.728,1.975l.208,5.718c0,.52-.208.936-.832.936a.894.894,0,0,1-.832-.832l-1.144.624a1.875,1.875,0,0,1-1.04.208H396a2.563,2.563,0,0,1-1.871-.624,2.26,2.26,0,0,1-.832-2.079v-.728a2.137,2.137,0,0,1,.832-1.871,2.812,2.812,0,0,1,1.975-.624h3.535v-.416c0-1.248-.312-1.455-1.456-1.455H396Zm0,3.535c-.416,0-1.144.1-1.144.728v1.144c0,.52.728.728,1.04.728h1.871l1.871-.936v-.416c0-.936-.312-1.248-1.144-1.248H396Z" transform="translate(-373.339 -223.341)"/>
      <path id="Path_21" data-name="Path 21" class="cls-13" d="M407.378,229.29c-.208,0-.312.1-.52.208l-2.5,1.559v4.886c0,.624-.1,1.144-.832,1.144s-.832-.624-.832-1.144v-10.5c0-.624.1-1.144.832-1.144s.832.624.832,1.144v3.743l1.352-.936a2.484,2.484,0,0,1,1.456-.52h1.143a2.336,2.336,0,0,1,1.663.624,2.583,2.583,0,0,1,.728,2.287l.208,5.3c0,.624-.1,1.248-.832,1.248s-.832-.624-.832-1.144l-.208-5.2c0-.832,0-1.455-.936-1.455h-.728Z" transform="translate(-372.967 -223.468)"/>
      <path id="Path_22" data-name="Path 22" class="cls-13" d="M416.163,229.294h-.52c-.52,0-1.144-.1-1.144-.832s.624-.832,1.144-.832h.52v-.208a2.969,2.969,0,0,1,.832-2.391,3.423,3.423,0,0,1,2.6-.832h1.144c.624,0,1.247.1,1.247.832s-.624.832-1.143.832H419.49c-1.144,0-1.559.208-1.559,1.455v.312h1.455c.52,0,1.144.1,1.144.832s-.624.832-1.144.832h-1.455v6.55c0,.624-.1,1.144-.832,1.144s-.832-.624-.832-1.144v-6.55Z" transform="translate(-372.499 -223.472)"/>
      <path id="Path_23" data-name="Path 23" class="cls-13" d="M423.3,228.748c0-.624.1-1.248.832-1.248.624,0,.832.52.832,1.144v.728l1.351-1.04a2.427,2.427,0,0,1,1.455-.728h1.352a2.549,2.549,0,0,1,1.663.624,2.506,2.506,0,0,1,.728,1.871c0,.624-.1,1.144-.832,1.144-.624,0-.832-.52-.832-1.04a.877.877,0,0,0-.208-.728c-.208-.312-.624-.312-1.04-.312h-.416c-.312,0-.52.208-.832.416l-2.287,1.975v4.262c0,.624-.1,1.144-.832,1.144s-.832-.624-.832-1.144v-7.069Z" transform="translate(-372.151 -223.341)"/>
      <path id="Path_24" data-name="Path 24" class="cls-13" d="M435.6,229.163c-.52,0-1.144-.1-1.144-.832s.624-.832,1.144-.832h2.287a2.94,2.94,0,0,1,2.183.728,2.371,2.371,0,0,1,.728,1.975l.208,5.718c0,.52-.208.936-.832.936a.894.894,0,0,1-.832-.832l-1.144.624a1.875,1.875,0,0,1-1.04.208H435.6a2.563,2.563,0,0,1-1.871-.624,2.26,2.26,0,0,1-.832-2.079v-.728a2.137,2.137,0,0,1,.832-1.871,2.812,2.812,0,0,1,1.975-.624h3.535v-.416c0-1.248-.312-1.455-1.455-1.455H435.6Zm0,3.535c-.416,0-1.144.1-1.144.728v1.144c0,.52.728.728,1.04.728h1.871l1.871-.936v-.416c0-.936-.312-1.248-1.144-1.248h-2.5Z" transform="translate(-371.77 -223.341)"/>
      <path id="Path_25" data-name="Path 25" class="cls-13" d="M444.063,230.927v4.886c0,.624-.1,1.144-.832,1.144s-.832-.624-.832-1.144v-6.965c0-.624.1-1.248.832-1.248s.832.624.832,1.248v.208h0l1.352-.936a2.484,2.484,0,0,1,1.455-.52h1.248a2.292,2.292,0,0,1,1.559.624,2.583,2.583,0,0,1,.728,2.287l.208,5.3c0,.624-.1,1.247-.832,1.247s-.832-.624-.832-1.144l-.208-5.2c0-1.04-.1-1.455-1.144-1.455h-.52c-.208,0-.312.1-.52.208Z" transform="translate(-371.394 -223.338)"/>
      <path id="Path_26" data-name="Path 26" class="cls-13" d="M451.9,231.347a2.271,2.271,0,0,1,1.04-2.183l1.248-1.04a2.739,2.739,0,0,1,2.183-.624h2.6c.52,0,1.144.1,1.144.832s-.624.832-1.144.832h-2.911a1.868,1.868,0,0,0-.936.416l-1.04.832a.785.785,0,0,0-.416.728v2.079a1.052,1.052,0,0,0,.416.728l1.04.832a1.868,1.868,0,0,0,.936.416h2.911c.52,0,1.144.1,1.144.832s-.624.832-1.144.832h-2.6a2.851,2.851,0,0,1-2.183-.624l-1.248-1.04a2.271,2.271,0,0,1-1.04-2.183Z" transform="translate(-371.017 -223.341)"/>
      <path id="Path_27" data-name="Path 27" class="cls-13" d="M466.458,235.352h1.248c.52,0,1.144.1,1.144.832s-.624.832-1.144.832h-4.262c-.52,0-1.144-.1-1.144-.832s.624-.832,1.144-.832H464.8v-6.03h-1.352c-.52,0-1.144-.1-1.144-.832s.624-.832,1.144-.832h1.767c.936,0,1.247.208,1.247,1.144v6.55Zm-2.6-11.02c0-.624.312-.832.832-.832h.936a.762.762,0,0,1,.832.832v.832c0,.624-.312.832-.832.832h-.936a.762.762,0,0,1-.832-.832Z" transform="translate(-370.605 -223.5)"/>
      <path id="Path_28" data-name="Path 28" class="cls-13" d="M473.907,229.155c-.312,0-.936-.1-.936.52,0,.312.208.416.416.52l4.159,1.871a2.467,2.467,0,0,1,1.663,2.391,2.406,2.406,0,0,1-2.7,2.5h-2.6a2.863,2.863,0,0,1-2.079-.52c-.312-.208-.728-.52-.728-.936a.82.82,0,0,1,.832-.832.741.741,0,0,1,.624.312,1.917,1.917,0,0,0,1.352.416h2.287c.624,0,1.352.1,1.352-.936,0-.416-.52-.624-.832-.832l-3.951-1.767a2.035,2.035,0,0,1-1.456-2.079A2.076,2.076,0,0,1,473.6,227.7H476.4a2.531,2.531,0,0,1,1.975.624c.312.312.624.52.624.936a.82.82,0,0,1-.832.832.944.944,0,0,1-.728-.312,1.256,1.256,0,0,0-1.04-.312h-2.5Z" transform="translate(-370.257 -223.334)"/>
    </g>
  </g>
</svg>
